<?xml version="1.0" encoding="utf-8"?>
<!-- Generator: Adobe Illustrator 16.0.2, SVG Export Plug-In . SVG Version: 6.00 Build 0)  -->
<!DOCTYPE svg PUBLIC "-//W3C//DTD SVG 1.1//EN" "http://www.w3.org/Graphics/SVG/1.1/DTD/svg11.dtd">
<svg version="1.1" id="Layer_1" xmlns="http://www.w3.org/2000/svg" xmlns:xlink="http://www.w3.org/1999/xlink" x="0px" y="0px"
	 width="1259.766px" height="394px" viewBox="0 0 1259.766 394" enable-background="new 0 0 1259.766 394" xml:space="preserve">
<g id="LOGO">
	<polygon fill="#EA2628" points="887.262,139.936 783.424,139.908 860.883,55.88 1086.721,55.88 1055.369,88.878 1053.799,90.502 
		933.424,90.476 	"/>
	<polyline fill="#044793" points="1012.504,133.34 966.369,182.824 859.26,182.824 940.018,97.149 1167.477,97.123 1132.854,133.34 
			"/>
	<polyline fill="#3ED9E5" points="1246.61,139.986 1167.477,225.688 940.018,225.662 1019.151,139.975 	"/>
	<polygon fill="#0292CF" points="915.289,250.367 1144.395,250.418 1063.667,336.096 836.18,336.121 	"/>
	<g>
		<g>
			<path fill="#044793" d="M423.643,56.666h59.838c26.375,0,35.204,10.924,20.868,41.485
				c-13.682,29.168-33.302,41.486-59.134,41.486h-60.491L423.643,56.666z M425.271,118.721h17.657
				c14.06,0,23.217-7.438,29.376-20.568c6.159-13.132,3.979-20.568-10.079-20.568h-17.658L425.271,118.721z"/>
			<path fill="#044793" d="M551.274,56.666h37.713l-5.785,82.973h-32.697l1.199-9.529h-32.044l-7.738,9.529h-32.698L551.274,56.666z
				 M558.467,81.767h-0.219l-22.348,28.122h18.529L558.467,81.767z"/>
			<path fill="#044793" d="M609.093,116.28l-6.59-59.613H637.6l-0.438,32.538l30.084-32.538h35.097l-62.515,59.613l-10.957,23.358
				h-30.734L609.093,116.28z"/>
			<path fill="#044793" d="M715.856,56.666h37.711l-5.783,82.973h-32.698l1.2-9.529H684.24l-7.737,9.529h-32.699L715.856,56.666z
				 M723.047,81.767h-0.218l-22.348,28.122h18.527L723.047,81.767z"/>
		</g>
	</g>
	<g>
		<g>
			<path fill="#044793" d="M86.484,207.045l-14.605,9.348l-10.465,21.887H30.677l38.918-81.395h30.736l-13.736,28.728l42.293-28.728
				h40.763l-49.813,31.464l13.838,49.931H92.803L86.484,207.045z"/>
			<path fill="#044793" d="M212.972,205.791h-34.551l-15.534,32.488H132.15l38.918-81.396h30.736l-13.572,28.385h34.551
				l13.572-28.385h30.736l-38.918,81.396h-30.736L212.972,205.791z"/>
			<path fill="#044793" d="M298.7,156.886h37.712l-5.784,81.396H297.93l1.2-9.348h-32.044l-7.739,9.348h-32.698L298.7,156.886z
				 M305.892,181.509h-0.218l-22.346,27.589h18.527L305.892,181.509z"/>
			<path fill="#044793" d="M368.021,156.886h64.742c8.828,0,13.787,0.798,17.003,2.964c4.358,2.964,5.395,10.83,1.142,19.722
				c-3.65,7.639-10.627,15.847-20.872,18.58l-0.109,0.229c3.924,1.368,5.667,5.472,2.833,12.54l-7.194,17.783
				c-1.418,3.646-1.526,7.066-0.765,9.574h-33.57c0.056-2.394,1.744-5.928,5.725-15.389c2.562-6.043,2.344-9.69-3.323-9.69H371.83
				l-11.991,25.079h-30.736L368.021,156.886z M381.642,192.682h21.799c5.994,0,9.7-2.509,12.152-7.638
				c2.944-6.157-0.162-7.64-5.285-7.64h-21.362L381.642,192.682z"/>
			<path fill="#044793" d="M467.75,156.886h30.735l-38.918,81.396h-30.735L467.75,156.886z"/>
			<path fill="#044793" d="M503.441,203.739c-13.896-2.396-15.749-11.515-10.298-22.914c10.083-21.089,32.536-26.789,57.822-26.789
				c34.659,0,44.414,9.463,37.272,26.677h-35.75c1.581-3.308,0.71-5.358-1.579-6.499c-2.125-1.254-5.396-1.709-8.772-1.709
				c-9.156,0-13.461,2.394-15.098,5.813c-1.09,2.279-0.816,3.763,2.018,4.218l34.006,5.7c14.332,2.395,20.326,9.917,13.73,23.712
				c-9.482,19.835-29.432,29.184-63.98,29.184c-23.651,0-47.85-3.42-36.512-27.358h37.059c-1.199,2.734-1.09,4.562,0.49,5.813
				c1.743,1.14,4.85,1.71,9.646,1.71c9.591,0,13.516-2.736,15.368-6.611c1.146-2.395,0.871-4.789-2.941-5.474L503.441,203.739z"/>
			<path fill="#044793" d="M607.808,156.886h43.271l-9.866,47.31h0.217l35.373-47.309h43.271l-38.918,81.395h-27.901l27.799-58.139
				h-0.22l-44.146,58.139h-23.324l11.447-58.139h-0.217l-27.799,58.139H568.89L607.808,156.886z"/>
			<path fill="#044793" d="M751.68,156.886h37.713l-5.785,81.396H750.91l1.199-9.348h-32.045l-7.738,9.348H679.63L751.68,156.886z
				 M758.871,181.509h-0.219l-22.346,27.589h18.529L758.871,181.509z"/>
		</g>
	</g>
	<g>
		<g>
			<path fill="#044793" d="M374.147,251.529h30.736l-23.547,50.231c-5.017,10.696-0.819,14.067,9.208,14.067
				c10.026,0,17.384-3.371,22.398-14.067l23.547-50.231h30.736l-24.146,51.513c-12.374,26.394-31.066,34.418-62.677,34.418
				c-31.606,0-42.777-8.024-30.403-34.418L374.147,251.529z"/>
			<path fill="#044793" d="M485.864,272.46h-28.446l9.813-20.931h87.63l-9.813,20.931H516.6l-29.106,62.091h-30.735L485.864,272.46z
				"/>
			<path fill="#044793" d="M574.479,251.529h37.713l-5.786,83.021h-32.697l1.199-9.534h-32.044l-7.739,9.534h-32.697
				L574.479,251.529z M581.671,276.646h-0.219l-22.347,28.139h18.527L581.671,276.646z"/>
			<path fill="#044793" d="M643.799,251.529h43.27l-9.867,48.256h0.218l35.375-48.256h43.27l-38.92,83.021h-27.9l27.8-59.3h-0.22
				l-44.147,59.3H649.35l11.449-59.3h-0.218l-27.801,59.3h-27.9L643.799,251.529z"/>
			<path fill="#044793" d="M787.672,251.529h37.711l-5.785,83.021h-32.699l1.201-9.534h-32.045l-7.738,9.534h-32.697
				L787.672,251.529z M794.862,276.646h-0.217l-22.348,28.139h18.528L794.862,276.646z"/>
		</g>
	</g>
</g>
</svg>
